<?xml version="1.0" encoding="UTF-8"?>
<svg width="128" height="128" version="1.1" viewBox="0 0 33.867 33.867" xmlns="http://www.w3.org/2000/svg"><path d="m16.933 6.3594c-5.4702 0-9.9868 4.1838-10.52 9.5165h-5.3406a1.0575 1.0575 0 1 0 0 2.1148h5.3406c0.53338 5.3327 5.0501 9.5165 10.52 9.5165 5.4702 0 9.9868-4.1838 10.52-9.5165h5.3406a1.0575 1.0575 0 1 0 0-2.1148h-5.3406c-0.53338-5.3327-5.0501-9.5165-10.52-9.5165zm0 2.1148c4.6491 0 8.3946 3.7206 8.451 8.3559a1.0575 1.0575 0 0 0 0 0.20238c-0.05408 4.6373-3.8005 8.36-8.451 8.36-4.6491 0-8.3947-3.7206-8.451-8.3559a1.0575 1.0575 0 0 0 0-0.20239c0.054077-4.6373 3.8005-8.36 8.451-8.36zm0 4.2296c-2.3234 0-4.2296 1.9062-4.2296 4.2296 0 2.3234 1.9062 4.2296 4.2296 4.2296 2.3234 0 4.2296-1.9062 4.2296-4.2296 0-2.3234-1.9062-4.2296-4.2296-4.2296zm0 2.1148c1.1805 0 2.1148 0.93429 2.1148 2.1148 0 1.1805-0.93429 2.1148-2.1148 2.1148-1.1805 0-2.1148-0.93428-2.1148-2.1148 0-1.1805 0.93429-2.1148 2.1148-2.1148z" fill="#193e50" stroke-width="2.1148"/></svg>
